<svg aria-hidden="true" style="position: absolute; width: 0; height: 0; overflow: hidden;" version="1.1" xmlns="http://www.w3.org/2000/svg" xmlns:xlink="http://www.w3.org/1999/xlink">
<defs>      
      <symbol id="icon-arrow" viewBox="0 0 36 32">
               <path d="M1.062 17.414c-0.781-0.781-0.781-2.047 0-2.828l12.728-12.728c0.781-0.781 2.047-0.781 2.828 0s0.781 2.047 0 2.828l-11.314 11.314 11.314 11.314c0.781 0.781 0.781 2.047 0 2.828s-2.047 0.781-2.828 0l-12.728-12.728zM36 18h-33.524v-4h33.524v4z"></path>
      </symbol>
      <symbol id="icon-fb" viewBox="0 0 32 32">              
               <path d="M24.406 0.668c-1.487-0.158-2.981-0.234-4.476-0.23-4.956 0-8.036 3.157-8.036 8.238v3.45h-4.163c-0.195 0-0.383 0.078-0.521 0.216s-0.216 0.326-0.216 0.521v5.674c0 0.195 0.078 0.383 0.216 0.521s0.326 0.216 0.521 0.216h4.163v11.377c0 0.195 0.078 0.383 0.216 0.521s0.326 0.216 0.521 0.216h5.862c0.195 0 0.383-0.078 0.521-0.216s0.216-0.326 0.216-0.521v-11.377h4.15c0.179 0 0.352-0.065 0.486-0.183s0.221-0.281 0.245-0.458l0.732-5.674c0.014-0.104 0.005-0.21-0.026-0.31s-0.082-0.193-0.151-0.272c-0.069-0.079-0.154-0.142-0.25-0.185s-0.199-0.066-0.304-0.066h-4.882v-2.887c0-1.429 0.287-2.026 2.075-2.026h3.005c0.195 0 0.383-0.078 0.521-0.216s0.216-0.326 0.216-0.521v-5.077c0-0.179-0.065-0.352-0.183-0.486s-0.281-0.221-0.458-0.245zM23.574 5.737l-2.269 0.001c-3.179 0-3.547 1.998-3.547 3.5v3.625c0 0.195 0.077 0.382 0.215 0.521s0.325 0.216 0.52 0.216h4.784l-0.544 4.2h-4.238c-0.195 0-0.383 0.078-0.521 0.216s-0.216 0.326-0.216 0.521v11.374h-4.389v-11.374c0-0.195-0.078-0.383-0.216-0.521s-0.326-0.216-0.521-0.216h-4.162v-4.2h4.162c0.195 0 0.383-0.078 0.521-0.216s0.216-0.326 0.216-0.521v-4.188c0-4.235 2.454-6.764 6.562-6.764 1.487 0 2.829 0.081 3.643 0.152v3.674z"></path>              
      </symbol>
      <symbol id="icon-insta" viewBox="0 0 32 32">
               <path d="M16 8.897c-1.405 0-2.778 0.417-3.946 1.197s-2.079 1.89-2.616 3.188-0.678 2.726-0.404 4.104c0.274 1.378 0.951 2.643 1.944 3.637s2.259 1.67 3.637 1.944c1.378 0.274 2.806 0.133 4.104-0.404s2.407-1.448 3.188-2.616c0.781-1.168 1.197-2.541 1.197-3.946 0-1.884-0.748-3.69-2.080-5.022s-3.139-2.080-5.023-2.080zM16 21.25c-1.038 0-2.053-0.308-2.917-0.885s-1.536-1.397-1.934-2.356c-0.397-0.959-0.501-2.015-0.299-3.033s0.703-1.954 1.437-2.688 1.67-1.234 2.688-1.437c1.018-0.203 2.074-0.099 3.033 0.299s1.779 1.070 2.356 1.934c0.577 0.863 0.885 1.878 0.885 2.917-0.004 1.391-0.558 2.724-1.542 3.708s-2.317 1.538-3.708 1.542zM22.794 0.868h-13.588c-2.211 0-4.332 0.878-5.896 2.442s-2.442 3.685-2.442 5.896v13.588c0 2.211 0.878 4.332 2.442 5.896s3.685 2.442 5.896 2.442h13.588c2.211 0 4.332-0.878 5.896-2.442s2.442-3.685 2.442-5.896v-13.588c0-2.211-0.878-4.332-2.442-5.896s-3.685-2.442-5.896-2.442zM29.279 22.794c0 1.72-0.683 3.369-1.899 4.586s-2.866 1.899-4.586 1.899h-13.588c-1.72 0-3.37-0.683-4.586-1.899s-1.899-2.866-1.899-4.586v-13.588c0-1.72 0.683-3.37 1.899-4.586s2.866-1.899 4.586-1.899h13.588c1.72 0 3.369 0.683 4.586 1.899s1.899 2.866 1.899 4.586v13.588zM25.574 7.971c0 0.305-0.091 0.604-0.26 0.858s-0.411 0.452-0.693 0.569c-0.282 0.117-0.593 0.148-0.892 0.088s-0.575-0.207-0.791-0.423c-0.216-0.216-0.363-0.491-0.423-0.791s-0.029-0.61 0.088-0.892 0.315-0.523 0.569-0.693c0.254-0.17 0.552-0.26 0.858-0.26 0.41 0 0.802 0.163 1.092 0.452s0.452 0.682 0.452 1.092z"></path>
      </symbol>
      <symbol id="icon-tel" viewBox="0 0 32 32">              
               <path d="M28.237 23.305l-0.182-0.227c-1.441-1.821-2.645-2.769-3.678-2.894-0.893-0.122-1.757 0.496-2.675 1.131l-0.981 0.613c-0.118 0.059-0.234 0.106-0.343 0.139-0.574 0.162-2.023 0.258-2.843-0.493-0.955-0.874-2.436-2.472-3.588-3.87-1.1-1.446-2.31-3.249-2.941-4.385-0.533-0.962-0.087-2.307 0.211-2.806 0.059-0.098 0.136-0.195 0.221-0.29l0.865-0.799c0.013-0.013 0.018-0.028 0.029-0.039 0.008-0.008 0.022-0.006 0.032-0.013 0.781-0.659 1.589-1.338 1.7-2.211 0.13-1.025-0.507-2.411-1.95-4.231l-0.176-0.227c-0.893-1.145-2.244-2.877-4.185-2.591-0.763 0.113-1.445 0.374-2.148 0.815-0.007 0.004-0.011 0.013-0.017 0.017s-0.013 0.004-0.018 0.008l-0.979 0.725c-0.010 0.006-0.015 0.018-0.025 0.027-0.007 0.007-0.018 0.008-0.027 0.015-0.113 0.095-0.227 0.193-0.339 0.294-0.993 0.885-3.142 3.454-1.676 8.205 0.946 3.069 2.898 6.65 5.657 10.377l-0.027 0.022 1.522 1.896 0.013-0.010c2.992 3.539 6.037 6.275 8.827 7.931 1.862 1.106 3.489 1.471 4.827 1.471 1.761 0 3.023-0.633 3.655-1.044l0.398-0.266c0.045-0.031 0.077-0.074 0.109-0.113l0.867-0.652c0.010-0.008 0.015-0.020 0.025-0.028 0.004-0.004 0.011-0.003 0.017-0.007 0.616-0.563 1.043-1.152 1.34-1.851 0.769-1.791-0.608-3.506-1.518-4.641zM28.726 27.507c-0.231 0.543-0.568 1.005-1.056 1.453l-1.289 0.97c-1.168 0.759-3.664 1.697-7.29-0.456-2.79-1.656-5.862-4.456-8.884-8.098l-0.818-1.033c-2.846-3.774-4.848-7.389-5.793-10.452-1.228-3.983 0.319-6.119 1.355-7.042 0.105-0.095 0.21-0.183 0.314-0.272l0.004-0.004 0.939-0.696c0.571-0.361 1.1-0.563 1.709-0.655 1.301-0.196 2.359 1.176 3.136 2.173l0.182 0.231c1.613 2.034 1.768 3.002 1.718 3.396-0.056 0.438-0.722 1-1.31 1.494l-0.083 0.070c-0.003 0.003-0.004 0.007-0.007 0.010-0.004 0.003-0.008 0.004-0.013 0.007l-0.895 0.827c-0.006 0.006-0.008 0.013-0.014 0.020s-0.017 0.010-0.022 0.017c-0.139 0.155-0.258 0.311-0.354 0.472-0.503 0.841-0.977 2.58-0.228 3.926 0.654 1.176 1.898 3.034 3.042 4.535 1.196 1.45 2.72 3.097 3.709 4 0.741 0.676 1.771 0.903 2.663 0.903 0.477 0 0.916-0.066 1.247-0.16 0.175-0.050 0.356-0.123 0.542-0.214 0.011-0.006 0.017-0.015 0.028-0.022 0.006-0.003 0.014-0.001 0.020-0.006l1.039-0.65c0.034-0.022 0.056-0.052 0.084-0.080l0.013 0.014c0.64-0.444 1.369-0.965 1.826-0.889 0.405 0.049 1.323 0.438 2.939 2.478l0.186 0.234c0.787 0.981 1.865 2.325 1.362 3.5z"></path>
      </symbol>
      <symbol id="icon-crown" viewBox="0 0 32 32">              
               <path d="M29.687 10.326c-0.253-0.229-0.559-0.376-0.883-0.425s-0.655 0.003-0.954 0.15l-6.312 3.080c-0.028 0.017-0.058 0.027-0.090 0.031s-0.063 0-0.094-0.010c-0.030-0.010-0.058-0.027-0.083-0.049s-0.044-0.050-0.059-0.081l-3.688-7.287c-0.15-0.301-0.37-0.553-0.638-0.728s-0.575-0.268-0.887-0.268c-0.312 0-0.618 0.092-0.887 0.268s-0.489 0.427-0.638 0.728l-3.687 7.287c-0.014 0.031-0.034 0.059-0.059 0.081s-0.052 0.039-0.083 0.049c-0.030 0.010-0.062 0.014-0.094 0.010s-0.062-0.014-0.090-0.031l-6.313-3.080c-0.298-0.149-0.628-0.202-0.953-0.155s-0.631 0.194-0.883 0.423-0.442 0.532-0.546 0.873c-0.104 0.342-0.119 0.708-0.043 1.059l3.188 14.891c0.054 0.252 0.154 0.489 0.293 0.697s0.316 0.383 0.519 0.513c0.267 0.18 0.574 0.275 0.888 0.275 0.16-0.002 0.32-0.025 0.475-0.069 5.827-1.773 11.983-1.778 17.812-0.014 0.227 0.072 0.466 0.093 0.701 0.061s0.461-0.116 0.666-0.247 0.383-0.306 0.524-0.516c0.141-0.209 0.242-0.447 0.297-0.701l3.175-14.891c0.079-0.348 0.067-0.713-0.034-1.054s-0.289-0.643-0.541-0.871zM28.812 11.866l-3.188 14.891c-0.017 0.072-0.057 0.136-0.112 0.179-0.062 0.033-0.132 0.043-0.2 0.028-6.094-1.852-12.531-1.852-18.625 0-0.033 0.010-0.067 0.013-0.101 0.008s-0.066-0.017-0.096-0.037c-0.029-0.019-0.055-0.045-0.075-0.076s-0.034-0.065-0.041-0.102l-3.188-14.891c-0.007-0.041-0.006-0.083 0.003-0.124s0.026-0.079 0.050-0.111c0.024-0.033 0.054-0.059 0.088-0.078s0.071-0.029 0.109-0.030l0.1 0.028 6.325 3.094c0.399 0.198 0.851 0.222 1.266 0.069s0.762-0.472 0.972-0.894l3.688-7.287c0.020-0.043 0.050-0.080 0.088-0.106s0.081-0.039 0.125-0.039c0.044 0 0.087 0.014 0.125 0.039s0.068 0.062 0.088 0.106l3.687 7.287c0.21 0.422 0.557 0.742 0.972 0.894s0.867 0.128 1.266-0.069l6.325-3.094c0.043-0.021 0.090-0.028 0.137-0.021s0.090 0.029 0.126 0.062c0.037 0.032 0.064 0.075 0.080 0.124s0.018 0.101 0.008 0.151zM20.75 22.316c-0.021 0.203-0.109 0.391-0.247 0.527s-0.317 0.213-0.503 0.215h-0.075c-2.61-0.289-5.24-0.289-7.85 0-0.197 0.023-0.395-0.041-0.549-0.177s-0.254-0.335-0.276-0.552c-0.018-0.218 0.043-0.435 0.169-0.605s0.308-0.278 0.506-0.302c2.709-0.316 5.441-0.316 8.15 0 0.196 0.024 0.375 0.131 0.501 0.297s0.188 0.38 0.174 0.596z"></path>
      </symbol>
      <symbol id="icon-education" viewBox="0 0 32 32">
              <path d="M16.061 1.4c-1.050 0-2.031 0.478-2.867 1.261s-1.551 1.874-2.148 3.195c-0.125 0.277-0.244 0.564-0.359 0.861-0.308-0.049-0.617-0.089-0.927-0.12-0.361-0.036-0.712-0.058-1.054-0.066-1.026-0.024-1.964 0.080-2.786 0.329-1.096 0.332-2 0.943-2.525 1.852s-0.601 1.998-0.341 3.113c0.26 1.115 0.847 2.28 1.693 3.457 0.178 0.247 0.367 0.494 0.567 0.742-0.196 0.242-0.385 0.489-0.566 0.741-0.846 1.177-1.433 2.342-1.693 3.457s-0.184 2.204 0.341 3.113c0.525 0.909 1.429 1.52 2.525 1.852s2.398 0.407 3.841 0.263c0.302-0.030 0.611-0.071 0.926-0.12 0.112 0.291 0.231 0.579 0.359 0.863 0.596 1.321 1.312 2.412 2.148 3.195s1.817 1.261 2.867 1.261c1.050 0 2.031-0.478 2.866-1.261s1.551-1.874 2.148-3.195c0.128-0.284 0.248-0.572 0.359-0.862 0.314 0.049 0.623 0.090 0.925 0.12 1.442 0.144 2.745 0.070 3.841-0.263s2.001-0.943 2.526-1.852c0.525-0.909 0.601-1.998 0.341-3.113s-0.847-2.28-1.693-3.457c-0.182-0.252-0.371-0.5-0.567-0.741 0.196-0.242 0.385-0.489 0.567-0.742 0.846-1.177 1.433-2.342 1.693-3.457s0.184-2.204-0.341-3.113c-0.525-0.909-1.429-1.52-2.525-1.852-0.822-0.249-1.76-0.353-2.786-0.329-0.342 0.008-0.694 0.030-1.055 0.066-0.302 0.030-0.612 0.071-0.926 0.12-0.111-0.29-0.231-0.577-0.359-0.861-0.596-1.321-1.312-2.412-2.148-3.195s-1.817-1.261-2.866-1.261l0 0zM16.061 2.568c0.7 0 1.387 0.308 2.068 0.946s1.331 1.603 1.882 2.823c0.090 0.199 0.175 0.4 0.255 0.603-1.339 0.298-2.756 0.754-4.205 1.364-1.449-0.61-2.866-1.066-4.205-1.364 0.083-0.207 0.167-0.409 0.255-0.603 0.551-1.22 1.201-2.185 1.882-2.823s1.368-0.946 2.068-0.946l-0 0zM8.337 7.696c0.113-0.001 0.227-0 0.344 0.002 0.31 0.007 0.632 0.027 0.965 0.060 0.213 0.021 0.43 0.048 0.652 0.080-0.412 1.308-0.725 2.764-0.921 4.324-1.253 0.95-2.357 1.95-3.284 2.96-0.136-0.172-0.268-0.346-0.395-0.524-0.781-1.087-1.292-2.133-1.504-3.041s-0.135-1.657 0.215-2.264c0.35-0.607 0.96-1.047 1.853-1.318 0.586-0.178 1.287-0.273 2.077-0.281l0 0zM23.785 7.696c0.789 0.007 1.491 0.103 2.077 0.281 0.893 0.271 1.503 0.711 1.853 1.318s0.427 1.355 0.215 2.264c-0.212 0.909-0.723 1.954-1.504 3.041-0.128 0.177-0.26 0.352-0.395 0.524-0.927-1.010-2.031-2.010-3.284-2.96-0.196-1.56-0.51-3.016-0.922-4.324 0.221-0.032 0.438-0.059 0.651-0.080 0.321-0.033 0.643-0.053 0.965-0.060 0.114-0.003 0.229-0.003 0.344-0.002v0zM20.665 8.049c0.311 0.965 0.568 2.029 0.76 3.169-0.62-0.419-1.255-0.816-1.903-1.19s-1.308-0.725-1.981-1.053c1.082-0.403 2.133-0.713 3.124-0.926v-0zM11.457 8.049c0.991 0.213 2.041 0.523 3.123 0.926-0.672 0.327-1.333 0.679-1.981 1.053s-1.282 0.77-1.902 1.189c0.192-1.139 0.449-2.203 0.76-3.168zM16.061 9.578c0.95 0.419 1.915 0.906 2.877 1.462s1.867 1.147 2.705 1.761c0.112 1.033 0.173 2.112 0.173 3.223s-0.060 2.189-0.172 3.222c-0.838 0.614-1.743 1.205-2.705 1.761s-1.927 1.043-2.877 1.462c-0.951-0.419-1.916-0.907-2.878-1.462s-1.866-1.147-2.704-1.76c-0.112-1.033-0.173-2.112-0.173-3.222s0.060-2.191 0.173-3.224c0.838-0.614 1.743-1.205 2.705-1.761s1.926-1.043 2.877-1.462v-0zM16.14 11.335l-3.344 2.064 3.344 2.064 3.344-2.064-3.344-2.064zM9.217 13.781c-0.053 0.746-0.079 1.494-0.079 2.243 0 0.762 0.027 1.511 0.079 2.241-0.891-0.736-1.684-1.491-2.364-2.242 0.68-0.751 1.473-1.506 2.364-2.242zM22.905 13.781c0.89 0.736 1.683 1.49 2.363 2.242-0.68 0.751-1.473 1.506-2.363 2.242 0.052-0.746 0.079-1.493 0.078-2.241 0-0.763-0.027-1.511-0.079-2.242h0zM12.043 14.306v4.075l3.512 2.167v-4.075l-3.512-2.168zM20.234 14.308l-3.511 2.167v4.073l3.511-2.167v-4.073h-0zM6.091 16.923c0.927 1.011 2.031 2.010 3.284 2.96 0.196 1.56 0.51 3.016 0.921 4.323-0.221 0.032-0.438 0.059-0.65 0.080-1.331 0.133-2.493 0.053-3.386-0.218s-1.502-0.712-1.853-1.318c-0.35-0.607-0.427-1.355-0.215-2.264s0.723-1.954 1.504-3.041c0.128-0.177 0.259-0.352 0.395-0.523zM26.030 16.923c0.138 0.175 0.27 0.349 0.395 0.523 0.781 1.087 1.292 2.133 1.504 3.041s0.135 1.657-0.215 2.264c-0.35 0.606-0.96 1.047-1.853 1.318s-2.054 0.351-3.386 0.218c-0.217-0.022-0.434-0.049-0.65-0.080 0.412-1.308 0.725-2.764 0.921-4.324 1.252-0.95 2.357-1.949 3.283-2.959v0zM21.425 20.828c-0.192 1.139-0.449 2.204-0.76 3.169-0.991-0.213-2.041-0.523-3.124-0.926 0.673-0.328 1.333-0.679 1.981-1.053s1.283-0.771 1.903-1.189h-0zM10.698 20.829c0.62 0.418 1.254 0.815 1.902 1.189s1.309 0.725 1.981 1.053c-1.082 0.403-2.132 0.713-3.123 0.926-0.311-0.965-0.568-2.029-0.759-3.168zM16.096 20.882l0.043 0.026 0.042-0.026h-0.085zM16.061 23.743c1.449 0.61 2.867 1.067 4.206 1.364-0.081 0.203-0.166 0.405-0.256 0.604-0.551 1.22-1.201 2.185-1.882 2.823s-1.368 0.946-2.068 0.946c-0.7 0-1.387-0.308-2.068-0.946s-1.331-1.603-1.882-2.823c-0.090-0.2-0.175-0.401-0.256-0.604 1.339-0.298 2.756-0.754 4.205-1.364h-0z"></path>
      </symbol>
      <symbol id="icon-equipment" viewBox="0 0 32 32">
              <path d="M9.755 11.589h-9.892c-0.304 0-0.55 0.236-0.55 0.527v3.164c0 0.292 0.246 0.527 0.55 0.527h0.55v12.127c0 0.292 0.246 0.527 0.55 0.527h7.694c0.304 0 0.55-0.236 0.55-0.527v-12.127h0.55c0.304 0 0.55-0.236 0.55-0.527v-3.164c0-0.292-0.246-0.527-0.55-0.527zM3.71 21.607v-1.055h3.297v-1.055h-3.297v-1.055h4.396v6.854h-4.396v-2.636h1.099v-1.055h-1.099zM8.106 17.389h-4.946c-0.304 0-0.55 0.236-0.55 0.527v7.909c0 0.292 0.246 0.527 0.55 0.527h4.946v1.055h-6.595v-11.6h6.595v1.582zM9.205 14.753h-8.793v-2.109h8.793v2.109z"></path>
              <path d="M17.036 11.688v-3.855c0-0.3-0.246-0.543-0.55-0.543h-0.55v-2.714h1.099v-1.086h-6.045v1.086h3.847v2.714h-0.55c-0.304 0-0.55 0.243-0.55 0.543v3.855c-1.252 0.252-2.198 1.348-2.198 2.659v13.571c0 0.3 0.246 0.543 0.55 0.543h6.595c0.304 0 0.55-0.243 0.55-0.543v-13.571c0-1.31-0.946-2.407-2.198-2.659zM14.838 8.376h1.099v3.257h-1.099v-3.257zM14.289 12.719h2.198c0.909 0 1.649 0.731 1.649 1.629v0.543h-5.496v-0.543c0-0.898 0.74-1.629 1.649-1.629zM18.135 25.204h-5.496v-1.086h2.198v-1.086h-2.198v-7.057h5.496v9.228zM12.64 27.376v-1.086h5.496v1.086h-5.496z"></path>
              <path d="M31.084 10.914h-9.274c-0.285 0-0.515 0.238-0.515 0.532v16.484c0 0.294 0.23 0.532 0.515 0.532h9.274c0.285 0 0.515-0.238 0.515-0.532v-16.484c0-0.294-0.23-0.532-0.515-0.532zM30.569 27.398h-8.243v-15.42h8.243v15.42z"></path>
              <path d="M7.557 21.712h-1.374v0.675h1.374v-0.675z"></path>
              <path d="M17.174 23.062h-1.374v1.35h1.374v-1.35z"></path>
              <path d="M15.456 21.712c1.326 0 2.404-1.059 2.404-2.362s-1.078-2.362-2.404-2.362c-1.326 0-2.404 1.059-2.404 2.362s1.078 2.362 2.404 2.362zM15.456 18.169c0.663 0 1.202 0.53 1.202 1.181s-0.539 1.181-1.202 1.181c-0.663 0-1.202-0.53-1.202-1.181s0.539-1.181 1.202-1.181z"></path>
              <path d="M25.159 16.313h2.576c0.994 0 1.803-0.757 1.803-1.687s-0.809-1.687-1.803-1.687h-2.576c-0.994 0-1.803 0.757-1.803 1.687s0.809 1.687 1.803 1.687zM28.508 14.626c0 0.399-0.347 0.723-0.773 0.723h-0.773v-1.446h0.773c0.426 0 0.773 0.324 0.773 0.723zM25.159 13.903h0.773v1.446h-0.773c-0.426 0-0.773-0.324-0.773-0.723s0.347-0.723 0.773-0.723z"></path>
              <path d="M25.159 21.712h2.576c0.994 0 1.803-0.908 1.803-2.025s-0.809-2.025-1.803-2.025h-2.576c-0.994 0-1.803 0.908-1.803 2.025s0.809 2.025 1.803 2.025zM28.508 19.688c0 0.478-0.347 0.868-0.773 0.868h-0.773v-1.735h0.773c0.426 0 0.773 0.389 0.773 0.868zM25.159 18.82h0.773v1.735h-0.773c-0.426 0-0.773-0.389-0.773-0.868s0.347-0.868 0.773-0.868z"></path>
              <path d="M25.159 26.437h2.576c0.994 0 1.803-0.908 1.803-2.025s-0.809-2.025-1.803-2.025h-2.576c-0.994 0-1.803 0.908-1.803 2.025s0.809 2.025 1.803 2.025zM28.508 24.412c0 0.478-0.347 0.868-0.773 0.868h-0.773v-1.735h0.773c0.426 0 0.773 0.389 0.773 0.868zM25.159 23.544h0.773v1.735h-0.773c-0.426 0-0.773-0.389-0.773-0.868s0.347-0.868 0.773-0.868z"></path>
       </symbol>
       <symbol id="icon-star" viewBox="0 0 32 32">
              <path d="M6.693 0l10.657 10.184 14.321-3.491-10.184 10.657 3.491 14.321-10.657-10.184-14.321 3.491 10.184-10.657-3.491-14.321z"></path>
       </symbol>
</defs>
</svg>
